<svg width="75" height="86" viewBox="0 0 75 86" fill="none" xmlns="http://www.w3.org/2000/svg">
<path d="M11.0337 0.653931C10.2927 0.653931 9.65747 0.759796 9.02228 0.971526C4.89354 1.81845 1.61172 5.10026 0.7648 9.229C0.447205 9.86419 0.447205 10.4994 0.447205 11.2404V69.4662C0.447205 78.253 7.54016 85.346 16.327 85.346H74.5528V74.7595H16.327C13.3627 74.7595 11.0337 72.4305 11.0337 69.4662C11.0337 66.502 13.3627 64.173 16.327 64.173H74.5528V5.94718C74.5528 2.98296 72.2237 0.653931 69.2595 0.653931H63.9663V32.4135L53.3797 21.8269L42.7932 32.4135V0.653931H11.0337Z" fill="#404040"/>
</svg>
