<svg width="115" height="66" viewBox="0 0 115 66" fill="none" xmlns="http://www.w3.org/2000/svg">
<path d="M29.2429 1.58588H30.5571L3.28571 17.7626H1.97143L29.2429 1.58588Z" fill="#E85E5E"/>
<path d="M34.8286 46.3099H104.814L71.1357 65.3414H1.97144L34.8286 46.3099Z" fill="#D9D9D9"/>
<path d="M42.2215 1.58588H43.5358L16.1 17.7626H14.7858L42.2215 1.58588Z" fill="#5E74E8"/>
<path d="M55.3644 0.634387H56.1858L29.0787 17.9213H27.7644L55.3644 0.634387Z" fill="#F9CA4F"/>
<path d="M65.2216 0.475769H65.7144L53.641 8.64347L40.991 16.8112H40.0858L65.2216 0.475769Z" fill="#F9CA4F"/>
<path d="M1.97144 17.7627H15.1143V65.3414H9.97144C5.55316 65.3414 1.97144 61.7597 1.97144 57.3414V17.7627Z" fill="#E85E5E"/>
<path d="M14.7856 17.7627H27.9285V65.3414H22.7856C18.3674 65.3414 14.7856 61.7597 14.7856 57.3414V17.7627Z" fill="#5E74E8"/>
<path d="M27.6001 17.7406L40.5787 57.5481L27.6001 65.3193V17.7406Z" fill="#3C4EAA"/>
<path d="M27.9287 17.917L41.0216 16.8112L45.3171 64.2089L40.1959 64.6414C35.7933 65.0132 31.901 61.7476 31.5022 57.3473L27.9287 17.917Z" fill="#F9CA4F"/>
<path d="M41.1044 17.7678C41.0379 17.0341 41.3803 16.3258 41.9956 15.9242L63.5626 1.8458C64.8168 1.0271 66.5012 1.83482 66.6548 3.32863L70.9604 45.1792C71.0351 45.9058 70.7076 46.613 70.1061 47.0239L48.1121 62.0477C46.8514 62.9088 45.121 62.0882 44.9829 60.5638L41.1044 17.7678Z" fill="#C49D39"/>
<path d="M30.2285 1.58588C30.5914 1.58588 30.8857 1.88009 30.8857 2.24302V2.53745H30.2285V1.58588Z" fill="#E85E5E"/>
<path d="M43.3716 1.58588C43.7345 1.58588 44.0287 1.88009 44.0287 2.24302V2.53745H43.3716V1.58588Z" fill="#5E74E8"/>
<path d="M55.5286 0.634369H55.5513C55.9017 0.634369 56.1857 0.918392 56.1857 1.26875H55.5286V0.634369Z" fill="#F9CA4F"/>
</svg>
