<svg width="303" height="75" viewBox="0 0 303 75" fill="none" xmlns="http://www.w3.org/2000/svg">
<path d="M142.488 35.5547H146.953V37.5938C147.383 36.7109 147.824 36.1055 148.277 35.7773C148.738 35.4414 149.305 35.2734 149.977 35.2734C150.68 35.2734 151.449 35.4922 152.285 35.9297L150.809 39.3281C150.246 39.0938 149.801 38.9766 149.473 38.9766C148.848 38.9766 148.363 39.2344 148.02 39.75C147.527 40.4766 147.281 41.8359 147.281 43.8281V48H142.488V35.5547ZM166.922 42.9609H157.359C157.445 43.7266 157.652 44.2969 157.98 44.6719C158.441 45.2109 159.043 45.4805 159.785 45.4805C160.254 45.4805 160.699 45.3633 161.121 45.1289C161.379 44.9805 161.656 44.7188 161.953 44.3438L166.652 44.7773C165.934 46.0273 165.066 46.9258 164.051 47.4727C163.035 48.0117 161.578 48.2812 159.68 48.2812C158.031 48.2812 156.734 48.0508 155.789 47.5898C154.844 47.1211 154.059 46.3828 153.434 45.375C152.816 44.3594 152.508 43.168 152.508 41.8008C152.508 39.8555 153.129 38.2812 154.371 37.0781C155.621 35.875 157.344 35.2734 159.539 35.2734C161.32 35.2734 162.727 35.543 163.758 36.082C164.789 36.6211 165.574 37.4023 166.113 38.4258C166.652 39.4492 166.922 40.7812 166.922 42.4219V42.9609ZM162.07 40.6758C161.977 39.7539 161.727 39.0938 161.32 38.6953C160.922 38.2969 160.395 38.0977 159.738 38.0977C158.98 38.0977 158.375 38.3984 157.922 39C157.633 39.375 157.449 39.9336 157.371 40.6758H162.07ZM169.148 35.5547H173.602V37.3711C174.242 36.6133 174.887 36.0742 175.535 35.7539C176.191 35.4336 176.98 35.2734 177.902 35.2734C178.895 35.2734 179.68 35.4492 180.258 35.8008C180.836 36.1523 181.309 36.6758 181.676 37.3711C182.426 36.5586 183.109 36.0078 183.727 35.7188C184.344 35.4219 185.105 35.2734 186.012 35.2734C187.348 35.2734 188.391 35.6719 189.141 36.4688C189.891 37.2578 190.266 38.4961 190.266 40.1836V48H185.484V40.9102C185.484 40.3477 185.375 39.9297 185.156 39.6562C184.836 39.2266 184.438 39.0117 183.961 39.0117C183.398 39.0117 182.945 39.2148 182.602 39.6211C182.258 40.0273 182.086 40.6797 182.086 41.5781V48H177.305V41.1445C177.305 40.5977 177.273 40.2266 177.211 40.0312C177.109 39.7188 176.934 39.4688 176.684 39.2812C176.434 39.0859 176.141 38.9883 175.805 38.9883C175.258 38.9883 174.809 39.1953 174.457 39.6094C174.105 40.0234 173.93 40.7031 173.93 41.6484V48H169.148V35.5547ZM206.93 42.9609H197.367C197.453 43.7266 197.66 44.2969 197.988 44.6719C198.449 45.2109 199.051 45.4805 199.793 45.4805C200.262 45.4805 200.707 45.3633 201.129 45.1289C201.387 44.9805 201.664 44.7188 201.961 44.3438L206.66 44.7773C205.941 46.0273 205.074 46.9258 204.059 47.4727C203.043 48.0117 201.586 48.2812 199.688 48.2812C198.039 48.2812 196.742 48.0508 195.797 47.5898C194.852 47.1211 194.066 46.3828 193.441 45.375C192.824 44.3594 192.516 43.168 192.516 41.8008C192.516 39.8555 193.137 38.2812 194.379 37.0781C195.629 35.875 197.352 35.2734 199.547 35.2734C201.328 35.2734 202.734 35.543 203.766 36.082C204.797 36.6211 205.582 37.4023 206.121 38.4258C206.66 39.4492 206.93 40.7812 206.93 42.4219V42.9609ZM202.078 40.6758C201.984 39.7539 201.734 39.0938 201.328 38.6953C200.93 38.2969 200.402 38.0977 199.746 38.0977C198.988 38.0977 198.383 38.3984 197.93 39C197.641 39.375 197.457 39.9336 197.379 40.6758H202.078ZM209.156 35.5547H213.609V37.3711C214.25 36.6133 214.895 36.0742 215.543 35.7539C216.199 35.4336 216.988 35.2734 217.91 35.2734C218.902 35.2734 219.688 35.4492 220.266 35.8008C220.844 36.1523 221.316 36.6758 221.684 37.3711C222.434 36.5586 223.117 36.0078 223.734 35.7188C224.352 35.4219 225.113 35.2734 226.02 35.2734C227.355 35.2734 228.398 35.6719 229.148 36.4688C229.898 37.2578 230.273 38.4961 230.273 40.1836V48H225.492V40.9102C225.492 40.3477 225.383 39.9297 225.164 39.6562C224.844 39.2266 224.445 39.0117 223.969 39.0117C223.406 39.0117 222.953 39.2148 222.609 39.6211C222.266 40.0273 222.094 40.6797 222.094 41.5781V48H217.312V41.1445C217.312 40.5977 217.281 40.2266 217.219 40.0312C217.117 39.7188 216.941 39.4688 216.691 39.2812C216.441 39.0859 216.148 38.9883 215.812 38.9883C215.266 38.9883 214.816 39.1953 214.465 39.6094C214.113 40.0234 213.938 40.7031 213.938 41.6484V48H209.156V35.5547ZM233.145 30.8203H237.961V36.7734C238.438 36.2734 238.977 35.8984 239.578 35.6484C240.188 35.3984 240.859 35.2734 241.594 35.2734C243.109 35.2734 244.363 35.8203 245.355 36.9141C246.348 38 246.844 39.5625 246.844 41.6016C246.844 42.9609 246.617 44.1602 246.164 45.1992C245.711 46.2305 245.082 47.0039 244.277 47.5195C243.48 48.0273 242.594 48.2812 241.617 48.2812C240.781 48.2812 240.016 48.1016 239.32 47.7422C238.797 47.4609 238.227 46.9336 237.609 46.1602V48H233.145V30.8203ZM237.926 41.7422C237.926 42.8125 238.125 43.5898 238.523 44.0742C238.93 44.5508 239.441 44.7891 240.059 44.7891C240.629 44.7891 241.105 44.5547 241.488 44.0859C241.879 43.6094 242.074 42.8125 242.074 41.6953C242.074 40.7109 241.883 39.9883 241.5 39.5273C241.125 39.0664 240.668 38.8359 240.129 38.8359C239.48 38.8359 238.949 39.0781 238.535 39.5625C238.129 40.0391 237.926 40.7656 237.926 41.7422ZM248.543 41.8125C248.543 39.9141 249.184 38.3516 250.465 37.125C251.746 35.8906 253.477 35.2734 255.656 35.2734C258.148 35.2734 260.031 35.9961 261.305 37.4414C262.328 38.6055 262.84 40.0391 262.84 41.7422C262.84 43.6562 262.203 45.2266 260.93 46.4531C259.664 47.6719 257.91 48.2812 255.668 48.2812C253.668 48.2812 252.051 47.7734 250.816 46.7578C249.301 45.5 248.543 43.8516 248.543 41.8125ZM253.324 41.8008C253.324 42.9102 253.547 43.7305 253.992 44.2617C254.445 44.793 255.012 45.0586 255.691 45.0586C256.379 45.0586 256.941 44.7969 257.379 44.2734C257.824 43.75 258.047 42.9102 258.047 41.7539C258.047 40.6758 257.824 39.875 257.379 39.3516C256.934 38.8203 256.383 38.5547 255.727 38.5547C255.031 38.5547 254.457 38.8242 254.004 39.3633C253.551 39.8945 253.324 40.707 253.324 41.8008ZM264.551 41.8125C264.551 39.9141 265.191 38.3516 266.473 37.125C267.754 35.8906 269.484 35.2734 271.664 35.2734C274.156 35.2734 276.039 35.9961 277.312 37.4414C278.336 38.6055 278.848 40.0391 278.848 41.7422C278.848 43.6562 278.211 45.2266 276.938 46.4531C275.672 47.6719 273.918 48.2812 271.676 48.2812C269.676 48.2812 268.059 47.7734 266.824 46.7578C265.309 45.5 264.551 43.8516 264.551 41.8125ZM269.332 41.8008C269.332 42.9102 269.555 43.7305 270 44.2617C270.453 44.793 271.02 45.0586 271.699 45.0586C272.387 45.0586 272.949 44.7969 273.387 44.2734C273.832 43.75 274.055 42.9102 274.055 41.7539C274.055 40.6758 273.832 39.875 273.387 39.3516C272.941 38.8203 272.391 38.5547 271.734 38.5547C271.039 38.5547 270.465 38.8242 270.012 39.3633C269.559 39.8945 269.332 40.707 269.332 41.8008ZM281.145 30.8203H286.02V39.6797L289.582 35.5547H295.453L290.988 39.9141L295.711 48H290.332L287.812 43.0078L286.02 44.7656V48H281.145V30.8203Z" fill="black"/>
<path d="M59.2429 10.5859H60.5571L33.2857 26.7626H31.9714L59.2429 10.5859Z" fill="#E85E5E"/>
<path d="M64.8286 55.3099H134.814L101.136 74.3414H31.9714L64.8286 55.3099Z" fill="#D9D9D9"/>
<path d="M72.2215 10.5859H73.5358L46.1 26.7626H44.7858L72.2215 10.5859Z" fill="#5E74E8"/>
<path d="M85.3644 9.63439H86.1858L59.0787 26.9213H57.7644L85.3644 9.63439Z" fill="#F9CA4F"/>
<path d="M95.2216 9.47577H95.7144L83.641 17.6435L70.991 25.8112H70.0858L95.2216 9.47577Z" fill="#F9CA4F"/>
<path d="M31.9714 26.7627H45.1143V74.3414H39.9714C35.5532 74.3414 31.9714 70.7597 31.9714 66.3414V26.7627Z" fill="#E85E5E"/>
<path d="M44.7856 26.7627H57.9285V74.3414H52.7856C48.3674 74.3414 44.7856 70.7597 44.7856 66.3414V26.7627Z" fill="#5E74E8"/>
<path d="M57.6001 26.7406L70.5787 66.5481L57.6001 74.3193V26.7406Z" fill="#3C4EAA"/>
<path d="M57.9287 26.917L71.0216 25.8112L75.3171 73.2089L70.1959 73.6414C65.7933 74.0132 61.901 70.7476 61.5022 66.3473L57.9287 26.917Z" fill="#F9CA4F"/>
<path d="M71.1044 26.7678C71.0379 26.0341 71.3803 25.3258 71.9956 24.9242L93.5626 10.8458C94.8168 10.0271 96.5012 10.8348 96.6548 12.3286L100.96 54.1792C101.035 54.9058 100.708 55.613 100.106 56.0239L78.1121 71.0477C76.8514 71.9088 75.121 71.0882 74.9829 69.5638L71.1044 26.7678Z" fill="#C49D39"/>
<path d="M60.2285 10.5859C60.5914 10.5859 60.8857 10.8801 60.8857 11.243V11.5375H60.2285V10.5859Z" fill="#E85E5E"/>
<path d="M73.3716 10.5859C73.7345 10.5859 74.0287 10.8801 74.0287 11.243V11.5375H73.3716V10.5859Z" fill="#5E74E8"/>
<path d="M85.5286 9.63437H85.5513C85.9017 9.63437 86.1857 9.91839 86.1857 10.2688H85.5286V9.63437Z" fill="#F9CA4F"/>
</svg>
