<svg width="321" height="246" viewBox="0 0 321 246" fill="none" xmlns="http://www.w3.org/2000/svg">
<path d="M81.6257 5.49991H85.2943L9.17143 56.4999H5.50286L81.6257 5.49991Z" fill="#E85E5E"/>
<path d="M97.2172 146.5H292.569L198.561 206.5H5.50293L97.2172 146.5Z" fill="#D9D9D9"/>
<path d="M117.853 5.49991H121.521L44.9399 56.4999H41.2714L117.853 5.49991Z" fill="#5E74E8"/>
<path d="M154.539 2.49998H156.831L81.1672 57H77.4986L154.539 2.49998Z" fill="#F9CA4F"/>
<path d="M182.053 1.99991H183.429L149.728 27.75L114.418 53.5H111.891L182.053 1.99991Z" fill="#F9CA4F"/>
<path d="M5.50293 56.4999H42.1886V206.5H13.5029C9.08466 206.5 5.50293 202.918 5.50293 198.5V56.4999Z" fill="#E85E5E"/>
<path d="M41.2715 56.4999H77.9572V206.5H49.2715C44.8532 206.5 41.2715 202.918 41.2715 198.5V56.4999Z" fill="#5E74E8"/>
<path d="M77.04 56.4303L113.267 181.93L77.04 206.43V56.4303Z" fill="#3C4EAA"/>
<path d="M77.9572 56.9862L114.503 53.5L126.493 202.929L97.9111 205.656C93.5128 206.075 89.6608 202.845 89.3074 198.441L77.9572 56.9862Z" fill="#F9CA4F"/>
<path d="M114.523 53.8835C114.468 53.1859 114.78 52.5044 115.347 52.0863L182.273 2.74311C183.527 1.81814 185.289 2.59715 185.429 4.13893L198.309 145.542C198.372 146.231 198.075 146.909 197.524 147.334L129.326 199.949C128.069 200.92 126.258 200.132 126.132 198.559L114.523 53.8835Z" fill="#C49D39"/>
<path d="M84.3772 5.49991H85.2115C85.7638 5.49991 86.2115 5.94762 86.2115 6.49991V8.49991H84.3772V5.49991Z" fill="#E85E5E"/>
<path d="M121.063 5.49991H121.897C122.449 5.49991 122.897 5.94762 122.897 6.49991V8.49991H121.063V5.49991Z" fill="#5E74E8"/>
<path d="M154.997 2.49991H155.831C156.384 2.49991 156.831 2.94762 156.831 3.49991V4.49991H154.997V2.49991Z" fill="#F9CA4F"/>
<path d="M19.4805 221.758H26.9219V225.156C27.638 223.685 28.3737 222.676 29.1289 222.129C29.8971 221.569 30.8411 221.289 31.9609 221.289C33.1328 221.289 34.4154 221.654 35.8086 222.383L33.3477 228.047C32.4102 227.656 31.668 227.461 31.1211 227.461C30.0794 227.461 29.2721 227.891 28.6992 228.75C27.8789 229.961 27.4688 232.227 27.4688 235.547V242.5H19.4805V221.758ZM60.2031 234.102H44.2656C44.4089 235.378 44.7539 236.328 45.3008 236.953C46.069 237.852 47.0716 238.301 48.3086 238.301C49.0898 238.301 49.832 238.105 50.5352 237.715C50.9648 237.467 51.4271 237.031 51.9219 236.406L59.7539 237.129C58.556 239.212 57.1107 240.71 55.418 241.621C53.7253 242.52 51.2969 242.969 48.1328 242.969C45.3854 242.969 43.224 242.585 41.6484 241.816C40.0729 241.035 38.7643 239.805 37.7227 238.125C36.694 236.432 36.1797 234.447 36.1797 232.168C36.1797 228.926 37.2148 226.302 39.2852 224.297C41.3685 222.292 44.2396 221.289 47.8984 221.289C50.8672 221.289 53.2109 221.738 54.9297 222.637C56.6484 223.535 57.957 224.837 58.8555 226.543C59.7539 228.249 60.2031 230.469 60.2031 233.203V234.102ZM52.1172 230.293C51.9609 228.757 51.5443 227.656 50.8672 226.992C50.2031 226.328 49.3242 225.996 48.2305 225.996C46.9674 225.996 45.9583 226.497 45.2031 227.5C44.7214 228.125 44.4154 229.056 44.2852 230.293H52.1172ZM63.9141 221.758H71.3359V224.785C72.4036 223.522 73.4779 222.624 74.5586 222.09C75.6523 221.556 76.9674 221.289 78.5039 221.289C80.1576 221.289 81.4661 221.582 82.4297 222.168C83.3932 222.754 84.181 223.626 84.793 224.785C86.043 223.431 87.1823 222.513 88.2109 222.031C89.2396 221.536 90.5091 221.289 92.0195 221.289C94.2461 221.289 95.9844 221.953 97.2344 223.281C98.4844 224.596 99.1094 226.66 99.1094 229.473V242.5H91.1406V230.684C91.1406 229.746 90.9583 229.05 90.5938 228.594C90.0599 227.878 89.3958 227.52 88.6016 227.52C87.6641 227.52 86.9089 227.858 86.3359 228.535C85.763 229.212 85.4766 230.3 85.4766 231.797V242.5H77.5078V231.074C77.5078 230.163 77.4557 229.544 77.3516 229.219C77.1823 228.698 76.8893 228.281 76.4727 227.969C76.056 227.643 75.5677 227.48 75.0078 227.48C74.0964 227.48 73.3477 227.826 72.7617 228.516C72.1758 229.206 71.8828 230.339 71.8828 231.914V242.5H63.9141V221.758ZM126.883 234.102H110.945C111.089 235.378 111.434 236.328 111.98 236.953C112.749 237.852 113.751 238.301 114.988 238.301C115.77 238.301 116.512 238.105 117.215 237.715C117.645 237.467 118.107 237.031 118.602 236.406L126.434 237.129C125.236 239.212 123.79 240.71 122.098 241.621C120.405 242.52 117.977 242.969 114.812 242.969C112.065 242.969 109.904 242.585 108.328 241.816C106.753 241.035 105.444 239.805 104.402 238.125C103.374 236.432 102.859 234.447 102.859 232.168C102.859 228.926 103.895 226.302 105.965 224.297C108.048 222.292 110.919 221.289 114.578 221.289C117.547 221.289 119.891 221.738 121.609 222.637C123.328 223.535 124.637 224.837 125.535 226.543C126.434 228.249 126.883 230.469 126.883 233.203V234.102ZM118.797 230.293C118.641 228.757 118.224 227.656 117.547 226.992C116.883 226.328 116.004 225.996 114.91 225.996C113.647 225.996 112.638 226.497 111.883 227.5C111.401 228.125 111.095 229.056 110.965 230.293H118.797ZM130.594 221.758H138.016V224.785C139.083 223.522 140.158 222.624 141.238 222.09C142.332 221.556 143.647 221.289 145.184 221.289C146.837 221.289 148.146 221.582 149.109 222.168C150.073 222.754 150.861 223.626 151.473 224.785C152.723 223.431 153.862 222.513 154.891 222.031C155.919 221.536 157.189 221.289 158.699 221.289C160.926 221.289 162.664 221.953 163.914 223.281C165.164 224.596 165.789 226.66 165.789 229.473V242.5H157.82V230.684C157.82 229.746 157.638 229.05 157.273 228.594C156.74 227.878 156.076 227.52 155.281 227.52C154.344 227.52 153.589 227.858 153.016 228.535C152.443 229.212 152.156 230.3 152.156 231.797V242.5H144.188V231.074C144.188 230.163 144.135 229.544 144.031 229.219C143.862 228.698 143.569 228.281 143.152 227.969C142.736 227.643 142.247 227.48 141.688 227.48C140.776 227.48 140.027 227.826 139.441 228.516C138.855 229.206 138.562 230.339 138.562 231.914V242.5H130.594V221.758ZM170.574 213.867H178.602V223.789C179.396 222.956 180.294 222.331 181.297 221.914C182.312 221.497 183.432 221.289 184.656 221.289C187.182 221.289 189.272 222.201 190.926 224.023C192.579 225.833 193.406 228.438 193.406 231.836C193.406 234.102 193.029 236.1 192.273 237.832C191.518 239.551 190.47 240.84 189.129 241.699C187.801 242.546 186.323 242.969 184.695 242.969C183.302 242.969 182.026 242.669 180.867 242.07C179.995 241.602 179.044 240.723 178.016 239.434V242.5H170.574V213.867ZM178.543 232.07C178.543 233.854 178.875 235.15 179.539 235.957C180.216 236.751 181.069 237.148 182.098 237.148C183.048 237.148 183.842 236.758 184.48 235.977C185.132 235.182 185.457 233.854 185.457 231.992C185.457 230.352 185.138 229.147 184.5 228.379C183.875 227.611 183.113 227.227 182.215 227.227C181.134 227.227 180.249 227.63 179.559 228.438C178.882 229.232 178.543 230.443 178.543 232.07ZM196.238 232.188C196.238 229.023 197.306 226.419 199.441 224.375C201.577 222.318 204.461 221.289 208.094 221.289C212.247 221.289 215.385 222.494 217.508 224.902C219.214 226.842 220.066 229.232 220.066 232.07C220.066 235.26 219.005 237.878 216.883 239.922C214.773 241.953 211.85 242.969 208.113 242.969C204.78 242.969 202.085 242.122 200.027 240.43C197.501 238.333 196.238 235.586 196.238 232.188ZM204.207 232.168C204.207 234.017 204.578 235.384 205.32 236.27C206.076 237.155 207.02 237.598 208.152 237.598C209.298 237.598 210.236 237.161 210.965 236.289C211.707 235.417 212.078 234.017 212.078 232.09C212.078 230.293 211.707 228.958 210.965 228.086C210.223 227.201 209.305 226.758 208.211 226.758C207.052 226.758 206.095 227.207 205.34 228.105C204.585 228.991 204.207 230.345 204.207 232.168ZM222.918 232.188C222.918 229.023 223.986 226.419 226.121 224.375C228.257 222.318 231.141 221.289 234.773 221.289C238.927 221.289 242.065 222.494 244.188 224.902C245.893 226.842 246.746 229.232 246.746 232.07C246.746 235.26 245.685 237.878 243.562 239.922C241.453 241.953 238.53 242.969 234.793 242.969C231.46 242.969 228.764 242.122 226.707 240.43C224.181 238.333 222.918 235.586 222.918 232.188ZM230.887 232.168C230.887 234.017 231.258 235.384 232 236.27C232.755 237.155 233.699 237.598 234.832 237.598C235.978 237.598 236.915 237.161 237.645 236.289C238.387 235.417 238.758 234.017 238.758 232.09C238.758 230.293 238.387 228.958 237.645 228.086C236.902 227.201 235.984 226.758 234.891 226.758C233.732 226.758 232.775 227.207 232.02 228.105C231.264 228.991 230.887 230.345 230.887 232.168ZM250.574 213.867H258.699V228.633L264.637 221.758H274.422L266.98 229.023L274.852 242.5H265.887L261.688 234.18L258.699 237.109V242.5H250.574V213.867Z" fill="black"/>
</svg>
