<svg width="143" height="131" viewBox="0 0 143 131" fill="none" xmlns="http://www.w3.org/2000/svg">
<path d="M1.79297 100.548H6.75L13.2188 110.052V100.548H18.2227V117.728H13.2188L6.78516 108.294V117.728H1.79297V100.548ZM20.8477 111.54C20.8477 109.642 21.4883 108.08 22.7695 106.853C24.0508 105.619 25.7812 105.001 27.9609 105.001C30.4531 105.001 32.3359 105.724 33.6094 107.169C34.6328 108.333 35.1445 109.767 35.1445 111.47C35.1445 113.384 34.5078 114.955 33.2344 116.181C31.9688 117.4 30.2148 118.009 27.9727 118.009C25.9727 118.009 24.3555 117.501 23.1211 116.486C21.6055 115.228 20.8477 113.58 20.8477 111.54ZM25.6289 111.529C25.6289 112.638 25.8516 113.458 26.2969 113.99C26.75 114.521 27.3164 114.787 27.9961 114.787C28.6836 114.787 29.2461 114.525 29.6836 114.001C30.1289 113.478 30.3516 112.638 30.3516 111.482C30.3516 110.404 30.1289 109.603 29.6836 109.08C29.2383 108.548 28.6875 108.283 28.0312 108.283C27.3359 108.283 26.7617 108.552 26.3086 109.091C25.8555 109.622 25.6289 110.435 25.6289 111.529ZM45.9844 100.548H51.3047V117.728H45.9844V100.548ZM54.8438 105.283H59.2969V107.099C59.9375 106.341 60.582 105.802 61.2305 105.482C61.8867 105.162 62.6758 105.001 63.5977 105.001C64.5898 105.001 65.375 105.177 65.9531 105.529C66.5312 105.88 67.0039 106.404 67.3711 107.099C68.1211 106.287 68.8047 105.736 69.4219 105.447C70.0391 105.15 70.8008 105.001 71.707 105.001C73.043 105.001 74.0859 105.4 74.8359 106.197C75.5859 106.986 75.9609 108.224 75.9609 109.912V117.728H71.1797V110.638C71.1797 110.076 71.0703 109.658 70.8516 109.384C70.5312 108.955 70.1328 108.74 69.6562 108.74C69.0938 108.74 68.6406 108.943 68.2969 109.349C67.9531 109.755 67.7812 110.408 67.7812 111.306V117.728H63V110.872C63 110.326 62.9688 109.955 62.9062 109.759C62.8047 109.447 62.6289 109.197 62.3789 109.009C62.1289 108.814 61.8359 108.716 61.5 108.716C60.9531 108.716 60.5039 108.923 60.1523 109.337C59.8008 109.751 59.625 110.431 59.625 111.376V117.728H54.8438V105.283ZM83.1562 109.314L78.5977 108.833C78.7695 108.037 79.0156 107.412 79.3359 106.958C79.6641 106.497 80.1328 106.099 80.7422 105.763C81.1797 105.521 81.7812 105.333 82.5469 105.201C83.3125 105.068 84.1406 105.001 85.0312 105.001C86.4609 105.001 87.6094 105.083 88.4766 105.247C89.3438 105.404 90.0664 105.736 90.6445 106.244C91.0508 106.595 91.3711 107.095 91.6055 107.744C91.8398 108.384 91.957 108.997 91.957 109.583V115.08C91.957 115.665 91.9922 116.126 92.0625 116.462C92.1406 116.79 92.3047 117.212 92.5547 117.728H88.0781C87.8984 117.408 87.7812 117.165 87.7266 117.001C87.6719 116.83 87.6172 116.564 87.5625 116.205C86.9375 116.806 86.3164 117.236 85.6992 117.494C84.8555 117.837 83.875 118.009 82.7578 118.009C81.2734 118.009 80.1445 117.665 79.3711 116.978C78.6055 116.29 78.2227 115.443 78.2227 114.435C78.2227 113.49 78.5 112.712 79.0547 112.103C79.6094 111.494 80.6328 111.04 82.125 110.744C83.9141 110.384 85.0742 110.134 85.6055 109.994C86.1367 109.845 86.6992 109.654 87.293 109.419C87.293 108.833 87.1719 108.423 86.9297 108.189C86.6875 107.955 86.2617 107.837 85.6523 107.837C84.8711 107.837 84.2852 107.962 83.8945 108.212C83.5898 108.408 83.3438 108.775 83.1562 109.314ZM87.293 111.822C86.6367 112.056 85.9531 112.263 85.2422 112.443C84.2734 112.701 83.6602 112.955 83.4023 113.205C83.1367 113.462 83.0039 113.755 83.0039 114.083C83.0039 114.458 83.1328 114.767 83.3906 115.009C83.6562 115.244 84.043 115.361 84.5508 115.361C85.082 115.361 85.5742 115.232 86.0273 114.974C86.4883 114.716 86.8125 114.404 87 114.037C87.1953 113.662 87.293 113.177 87.293 112.583V111.822ZM103.477 105.283H107.941V117.037L107.953 117.587C107.953 118.369 107.785 119.111 107.449 119.814C107.121 120.525 106.68 121.099 106.125 121.537C105.578 121.974 104.879 122.29 104.027 122.486C103.184 122.681 102.215 122.779 101.121 122.779C98.6211 122.779 96.9023 122.404 95.9648 121.654C95.0352 120.904 94.5703 119.9 94.5703 118.642C94.5703 118.486 94.5781 118.275 94.5938 118.009L99.2227 118.537C99.3398 118.966 99.5195 119.263 99.7617 119.427C100.113 119.669 100.555 119.79 101.086 119.79C101.773 119.79 102.285 119.607 102.621 119.24C102.965 118.872 103.137 118.232 103.137 117.318V115.431C102.668 115.986 102.199 116.388 101.73 116.638C100.996 117.029 100.203 117.224 99.3516 117.224C97.6875 117.224 96.3438 116.497 95.3203 115.044C94.5938 114.013 94.2305 112.65 94.2305 110.955C94.2305 109.017 94.6992 107.54 95.6367 106.525C96.5742 105.509 97.8008 105.001 99.3164 105.001C100.285 105.001 101.082 105.165 101.707 105.494C102.34 105.822 102.93 106.365 103.477 107.122V105.283ZM98.9883 111.318C98.9883 112.216 99.1797 112.884 99.5625 113.322C99.9453 113.751 100.449 113.966 101.074 113.966C101.668 113.966 102.164 113.744 102.562 113.298C102.969 112.845 103.172 112.165 103.172 111.259C103.172 110.353 102.961 109.662 102.539 109.185C102.117 108.701 101.602 108.458 100.992 108.458C100.383 108.458 99.8945 108.681 99.5273 109.126C99.168 109.564 98.9883 110.294 98.9883 111.318ZM124.641 112.689H115.078C115.164 113.455 115.371 114.025 115.699 114.4C116.16 114.939 116.762 115.208 117.504 115.208C117.973 115.208 118.418 115.091 118.84 114.857C119.098 114.708 119.375 114.447 119.672 114.072L124.371 114.505C123.652 115.755 122.785 116.654 121.77 117.201C120.754 117.74 119.297 118.009 117.398 118.009C115.75 118.009 114.453 117.779 113.508 117.318C112.562 116.849 111.777 116.111 111.152 115.103C110.535 114.087 110.227 112.896 110.227 111.529C110.227 109.583 110.848 108.009 112.09 106.806C113.34 105.603 115.062 105.001 117.258 105.001C119.039 105.001 120.445 105.271 121.477 105.81C122.508 106.349 123.293 107.13 123.832 108.154C124.371 109.177 124.641 110.509 124.641 112.15V112.689ZM119.789 110.404C119.695 109.482 119.445 108.822 119.039 108.423C118.641 108.025 118.113 107.826 117.457 107.826C116.699 107.826 116.094 108.126 115.641 108.728C115.352 109.103 115.168 109.662 115.09 110.404H119.789Z" fill="#404040"/>
<path d="M14.1118 0V85.7649H97.8782V0H14.1118ZM24.5826 10.7206H87.4074V42.8825L76.9366 32.1618L66.4658 42.8825L87.4074 64.3237V75.0443H76.9366L35.0534 32.1618L24.5826 42.8825V10.7206Z" fill="#404040"/>
</svg>
